<svg width="39" height="40" fill="none" xmlns="http://www.w3.org/2000/svg"><path fill-rule="evenodd" clip-rule="evenodd" d="M10.82 12.408v6.147h2.4v-6.147h13.272v6.147h2.4v-6.147h4.859l1.902 25.161H3.347L5.25 12.41h5.57Zm18.014-2.43h7.134L38.25 40H.75L3.032 9.977h7.832c.142-2.02.646-3.59 1.706-5.562C13.874 1.986 16.094 0 19.5 0c3.378 0 5.763 1.953 7.249 4.35 1.222 1.97 1.893 3.56 2.085 5.627Zm-2.413 0c-.186-1.668-.744-2.788-1.704-4.336C23.53 3.73 21.82 2.431 19.5 2.431c-2.292 0-3.812 1.265-4.823 3.146-.831 1.547-1.267 2.687-1.406 4.4h13.15Z" fill="#BDBDBD"/></svg>