<?xml version="1.0" encoding="UTF-8"?>
<svg xmlns="http://www.w3.org/2000/svg" xmlns:xlink="http://www.w3.org/1999/xlink" viewBox="0 0 64 64" width="64px" height="64px">
<g id="surface13651485">
<rect x="0" y="0" width="64" height="64" style="fill:rgb(100%,0%,0%);fill-opacity:1;stroke:none;"/>
<path style=" stroke:none;fill-rule:nonzero;fill:rgb(100%,100%,100%);fill-opacity:1;" d="M 32 0.59375 C 49.347656 0.59375 63.40625 14.652344 63.40625 32 C 63.40625 49.347656 49.347656 63.40625 32 63.40625 C 14.652344 63.40625 0.59375 49.347656 0.59375 32 C 0.59375 14.652344 14.652344 0.59375 32 0.59375 Z M 37.550781 43.105469 C 39.085938 44.636719 41.570312 44.636719 43.105469 43.105469 C 44.640625 41.570312 44.636719 39.085938 43.105469 37.550781 C 42.800781 37.246094 39.933594 34.382812 37.550781 32 C 39.933594 29.617188 42.800781 26.753906 43.105469 26.449219 C 44.636719 24.914062 44.640625 22.429688 43.105469 20.894531 C 41.574219 19.363281 39.085938 19.363281 37.550781 20.894531 C 37.246094 21.199219 34.382812 24.066406 32 26.449219 C 29.617188 24.066406 26.753906 21.199219 26.449219 20.894531 C 24.914062 19.363281 22.429688 19.359375 20.894531 20.894531 C 19.359375 22.429688 19.363281 24.914062 20.894531 26.449219 C 21.199219 26.75 24.066406 29.617188 26.449219 32 C 24.066406 34.382812 21.199219 37.246094 20.894531 37.550781 C 19.363281 39.085938 19.363281 41.570312 20.894531 43.105469 C 22.429688 44.640625 24.914062 44.636719 26.449219 43.105469 C 26.75 42.800781 29.617188 39.933594 32 37.550781 C 34.382812 39.933594 37.246094 42.800781 37.550781 43.105469 Z M 37.550781 43.105469 "/>
</g>
</svg>
