<svg xmlns="http://www.w3.org/2000/svg" xmlns:xlink="http://www.w3.org/1999/xlink" viewBox="0,0,256,256" width="64px" height="64px" fill-rule="nonzero"><g transform="translate(-60.44444,-60.44444) scale(1.47222,1.47222)"><g fill="#00ff00" fill-rule="nonzero" stroke="none" stroke-width="1" stroke-linecap="butt" stroke-linejoin="miter" stroke-miterlimit="10" stroke-dasharray="" stroke-dashoffset="0" font-family="none" font-weight="none" font-size="none" text-anchor="none" style="mix-blend-mode: normal"><path d="M41.0566,214.9434v-173.88679h173.88679v173.88679z" id="bgRectangle"></path></g><g fill="#ffffff" fill-rule="nonzero" stroke="none" stroke-width="1" stroke-linecap="butt" stroke-linejoin="miter" stroke-miterlimit="10" stroke-dasharray="" stroke-dashoffset="0" font-family="none" font-weight="none" font-size="none" text-anchor="none" style="mix-blend-mode: normal"><g transform="scale(3.55556,3.55556)"><path d="M36,12c13.255,0 24,10.745 24,24c0,13.255 -10.745,24 -24,24c-13.255,0 -24,-10.745 -24,-24c0,-13.255 10.745,-24 24,-24zM40.243,44.485c1.171,1.171 3.071,1.172 4.243,0c1.172,-1.172 1.171,-3.071 0,-4.243c-0.233,-0.232 -2.423,-2.422 -4.243,-4.242c1.82,-1.82 4.01,-4.01 4.243,-4.243c1.171,-1.171 1.172,-3.071 0,-4.243c-1.171,-1.171 -3.071,-1.171 -4.243,0c-0.233,0.233 -2.423,2.423 -4.243,4.243c-1.82,-1.82 -4.01,-4.01 -4.243,-4.243c-1.171,-1.171 -3.071,-1.172 -4.243,0c-1.172,1.172 -1.171,3.071 0,4.243c0.232,0.232 2.423,2.423 4.243,4.243c-1.82,1.82 -4.01,4.01 -4.243,4.243c-1.171,1.171 -1.171,3.071 0,4.243c1.172,1.172 3.071,1.171 4.243,0c0.232,-0.232 2.423,-2.423 4.243,-4.243c1.82,1.82 4.01,4.01 4.243,4.242z"></path></g></g></g></svg>