<svg version="1.1" xmlns="http://www.w3.org/2000/svg" xmlns:xlink="http://www.w3.org/1999/xlink" viewBox="0 0 172 172"><g fill="none" fill-rule="nonzero" stroke="none" stroke-width="1" stroke-linecap="butt" stroke-linejoin="miter" stroke-miterlimit="10" stroke-dasharray="" stroke-dashoffset="0" font-family="none" font-weight="none" font-size="none" text-anchor="none" style="mix-blend-mode: normal"><path d="M0,172v-172h172v172z" fill="none"></path><g fill="#bd944d"><path d="M161.25,32.25h-150.5c-2.96853,0 -5.375,2.40647 -5.375,5.375v96.75c0,2.96853 2.40647,5.375 5.375,5.375h150.5c2.96853,0 5.375,-2.40647 5.375,-5.375v-96.75c0,-2.96853 -2.40647,-5.375 -5.375,-5.375zM86,91.375l-59.985,-48.375h119.97zM16.125,129v-80.14125l40.36625,32.25l-11.9325,12.1475c-1.51214,1.54266 -1.95384,3.84068 -1.12134,5.834c0.8325,1.99331 2.77743,3.29457 4.93759,3.3035c1.42869,0.00826 2.80189,-0.55262 3.81625,-1.55875l12.73875,-12.7925l17.68375,14.0825c1.97362,1.60107 4.79888,1.60107 6.7725,0l17.68375,-14.24375l12.73875,12.7925c1.01436,1.00613 2.38756,1.56701 3.81625,1.55875c2.16016,-0.00893 4.10509,-1.31019 4.93759,-3.3035c0.8325,-1.99331 0.3908,-4.29134 -1.12134,-5.834l-11.9325,-11.98625l40.36625,-32.25v80.14125z"></path></g></g></svg>