<svg width="40" height="40" viewBox="0 0 40 40" fill="none" xmlns="http://www.w3.org/2000/svg">
<path d="M0 20C0 8.9543 8.9543 0 20 0C31.0457 0 40 8.9543 40 20C40 31.0457 31.0457 40 20 40C8.9543 40 0 31.0457 0 20Z" fill="#4F4F4F"/>
<path d="M20.4179 14.7289C21.9044 14.7289 22.9071 15.371 23.4789 15.9076L25.713 13.7262C24.3409 12.4508 22.5553 11.668 20.4179 11.668C17.3217 11.668 14.6478 13.4447 13.346 16.0307L15.9056 18.0186C16.5477 16.1099 18.3245 14.7289 20.4179 14.7289Z" fill="white"/>
<path d="M28.017 19.7601C28.017 19.1092 27.9642 18.6343 27.8499 18.1417H20.4173V21.0795H24.7801C24.6921 21.8096 24.2172 22.9091 23.1617 23.6479L25.6597 25.583C27.155 24.2021 28.017 22.1702 28.017 19.7601Z" fill="white"/>
<path d="M15.9138 21.1501C15.7467 20.6575 15.6499 20.1297 15.6499 19.5844C15.6499 19.039 15.7473 18.5112 15.9056 18.0186L13.346 16.0307C12.8094 17.1038 12.501 18.309 12.501 19.5844C12.501 20.8598 12.8088 22.0648 13.3454 23.1379L15.9138 21.1501Z" fill="white"/>
<path d="M20.4172 27.5013C22.5546 27.5013 24.3489 26.7976 25.6595 25.5838L23.1615 23.6487C22.493 24.1149 21.5958 24.4403 20.4172 24.4403C18.3237 24.4403 16.5471 23.0588 15.9138 21.1501L13.3541 23.1385C14.6558 25.7245 17.321 27.5013 20.4172 27.5013Z" fill="white"/>
</svg>
