<svg width="16" height="16" viewBox="0 0 16 16" fill="none" xmlns="http://www.w3.org/2000/svg">
<rect x="1.525" y="7.73337" width="12.95" height="7.45" stroke="#333333" stroke-width="0.8"/>
<rect x="1.06699" y="4.81675" width="13.8667" height="2.86667" stroke="#333333" stroke-width="0.8"/>
<path d="M11.7732 3.83016C10.8304 4.77297 8.00195 4.77297 8.00195 4.77297C8.00195 4.77297 8.00195 1.94454 8.94476 1.00173C9.31992 0.62701 9.8285 0.416597 10.3587 0.416748C10.889 0.416899 11.3975 0.627601 11.7724 1.00253C12.1473 1.37747 12.358 1.88594 12.3582 2.41618C12.3583 2.94641 12.1479 3.45501 11.7732 3.83016Z" fill="white" stroke="#333333" stroke-width="0.8" stroke-linecap="round" stroke-linejoin="round"/>
<path d="M4.23147 3.83016C5.17427 4.77297 8.0027 4.77297 8.0027 4.77297C8.0027 4.77297 8.0027 1.94454 7.05989 1.00173C6.68475 0.62701 6.17615 0.416597 5.64592 0.416748C5.11568 0.416899 4.6072 0.627601 4.23227 1.00253C3.85734 1.37747 3.64664 1.88594 3.64648 2.41618C3.64633 2.94641 3.85675 3.45501 4.23147 3.83016Z" fill="white" stroke="#333333" stroke-width="0.8" stroke-linecap="round" stroke-linejoin="round"/>
<line x1="8.03379" y1="4.58337" x2="8.03379" y2="15.5834" stroke="#333333" stroke-width="0.8"/>
</svg>
