<svg width="20" height="20" fill="none" xmlns="http://www.w3.org/2000/svg"><path fill-rule="evenodd" clip-rule="evenodd" d="M6.413 6.963v2.459h.96V6.963h5.308v2.459h.96V6.963H16.5v10.064h-13V6.963h2.913Zm7.205-.972H17.5v12.008h-15V5.99h3.93c.057-.807.259-1.435.683-2.224C7.634 2.794 8.523 2 9.885 2c1.35 0 2.305.781 2.9 1.74.488.788.757 1.424.833 2.25Zm-.965 0c-.074-.667-.298-1.115-.682-1.734-.474-.765-1.158-1.285-2.086-1.285-.917 0-1.525.506-1.93 1.259-.332.619-.506 1.075-.562 1.76h5.26Z" fill="#000"/></svg>