<svg width="17" height="16" fill="none" xmlns="http://www.w3.org/2000/svg"><path d="M14.775 1.915c-.155.007-.307.05-.444.105-.135.054-.915.387-2.066.88L8.134 4.667 2.25 7.19l.021-.008s-.176.059-.354.183a.985.985 0 0 0-.264.26.686.686 0 0 0-.114.457c.076.616.714.791.714.791l.003.001 2.848.975c.073.243.864 2.884 1.039 3.444.096.309.186.487.28.609.046.06.096.108.15.142a.42.42 0 0 0 .067.034h.001c.003 0 .006 0 .008.002l-.007-.002.016.008.029.006c.326.114.596-.098.596-.098l.011-.008 1.75-1.623 2.84 2.214.036.016c.497.22.947.098 1.196-.105a1.22 1.22 0 0 0 .346-.464l.011-.027L15.561 3.12c.053-.243.061-.454.01-.644a.748.748 0 0 0-.326-.447.828.828 0 0 0-.47-.114Zm.017.65a.293.293 0 0 1 .125.014c.015.009.022.007.036.061a.786.786 0 0 1-.017.343l-.001.004L12.86 13.8c-.005.01-.048.11-.147.19-.1.083-.213.147-.51.022l-3.106-2.422-.087-.068-.002.001-.929-.696 5.22-6.141a.32.32 0 0 0-.422-.474L5.325 9.248l-2.853-.977s-.284-.157-.297-.267c-.001-.006-.004 0 .01-.023a.42.42 0 0 1 .099-.091c.092-.065.198-.104.198-.104l.01-.003.012-.005 5.882-2.522 4.13-1.768c1.151-.492 1.983-.846 2.053-.874a.698.698 0 0 1 .223-.048Zm-3.461 3.448L7.373 10.67l-.002.002a.304.304 0 0 0-.035.05.32.32 0 0 0-.042.126l-.515 2.318c-.01-.025-.015-.034-.024-.064-.164-.526-.91-3.018-1.014-3.362l5.59-3.727Zm-3.511 5.42.711.534-1.045.969.334-1.503Z" fill="#000"/></svg>