<?xml version="1.0" encoding="UTF-8"?>
<svg xmlns="http://www.w3.org/2000/svg" xmlns:xlink="http://www.w3.org/1999/xlink" viewBox="0 0 48 48" width="48px" height="48px">
<g id="surface14601665">
<path style=" stroke:none;fill-rule:nonzero;fill:rgb(74.117649%,58.039218%,30.19608%);fill-opacity:1;" d="M 20.5 4 C 20.007812 3.992188 19.546875 4.226562 19.261719 4.625 C 18.976562 5.023438 18.902344 5.539062 19.066406 6 L 14.640625 6 C 12.804688 6 11.082031 6.917969 10.0625 8.449219 L 7.699219 12 L 7.5 12 C 6.960938 11.992188 6.457031 12.277344 6.183594 12.742188 C 5.910156 13.210938 5.910156 13.789062 6.183594 14.257812 C 6.457031 14.722656 6.960938 15.007812 7.5 15 L 8.261719 15 C 8.390625 15.019531 8.523438 15.023438 8.652344 15.007812 L 11.125 38.085938 C 11.421875 40.867188 13.796875 43 16.59375 43 L 31.402344 43 C 34.203125 43 36.574219 40.867188 36.871094 38.085938 L 39.347656 15.007812 C 39.472656 15.019531 39.601562 15.019531 39.726562 15 L 40.5 15 C 41.039062 15.007812 41.542969 14.722656 41.816406 14.257812 C 42.089844 13.789062 42.089844 13.210938 41.816406 12.742188 C 41.542969 12.277344 41.039062 11.992188 40.5 12 L 40.300781 12 L 37.933594 8.449219 C 36.917969 6.921875 35.195312 6 33.359375 6 L 28.933594 6 C 29.097656 5.539062 29.023438 5.023438 28.738281 4.625 C 28.453125 4.226562 27.992188 3.992188 27.5 4 Z M 14.640625 9 L 33.359375 9 C 34.195312 9 34.976562 9.417969 35.4375 10.113281 L 36.695312 12 L 11.300781 12 L 12.558594 10.113281 C 12.5625 10.113281 12.5625 10.113281 12.5625 10.113281 C 13.027344 9.414062 13.800781 9 14.640625 9 Z M 11.667969 15 L 36.332031 15 L 33.890625 37.765625 C 33.753906 39.050781 32.695312 40 31.40625 40 L 16.59375 40 C 15.304688 40 14.246094 39.050781 14.109375 37.765625 Z M 11.667969 15 "/>
</g>
</svg>
